<svg id="visual" viewBox="0 0 1920 1080" width="1920" height="1080" xmlns="http://www.w3.org/2000/svg" xmlns:xlink="http://www.w3.org/1999/xlink" version="1.1"><rect x="0" y="0" width="1920" height="1080" fill="#020304"></rect><path d="M0 718L35.5 736.2C71 754.3 142 790.7 213.2 816.8C284.3 843 355.7 859 426.8 866.2C498 873.3 569 871.7 640 844.2C711 816.7 782 763.3 853.2 769.8C924.3 776.3 995.7 842.7 1066.8 842.7C1138 842.7 1209 776.3 1280 765.8C1351 755.3 1422 800.7 1493.2 825.5C1564.3 850.3 1635.7 854.7 1706.8 845.3C1778 836 1849 813 1884.5 801.5L1920 790L1920 1081L1884.5 1081C1849 1081 1778 1081 1706.8 1081C1635.7 1081 1564.3 1081 1493.2 1081C1422 1081 1351 1081 1280 1081C1209 1081 1138 1081 1066.8 1081C995.7 1081 924.3 1081 853.2 1081C782 1081 711 1081 640 1081C569 1081 498 1081 426.8 1081C355.7 1081 284.3 1081 213.2 1081C142 1081 71 1081 35.5 1081L0 1081Z" fill="#0066FF" stroke-linecap="round" stroke-linejoin="miter"></path></svg>